<svg width="151" height="47" viewBox="0 0 151 47" fill="none" xmlns="http://www.w3.org/2000/svg"><path fill-rule="evenodd" clip-rule="evenodd" d="M11.705 47h3.512V28.2h-3.512V47zm12.876-.282h3.146V34.856L40.969 47V28.482h-3.137v11.659L24.581 28.2v18.518zm23.57-4.553c1.713 1.336 3.768 2.109 5.971 2.109 2.147 0 3.652-.74 3.652-2.375 0-1.425-.96-1.983-2.641-2.607l-2.723-.947c-2.51-.893-4.418-2.198-4.418-5.195 0-3.207 2.89-4.95 6.345-4.95 2.116 0 4.046.533 5.553 1.478v3.18c-1.567-1.16-3.283-1.96-5.486-1.96-1.897 0-3.315.71-3.315 2.189 0 1.336.89 1.87 2.457 2.408l3.034 1.067c2.939 1.035 4.288 2.64 4.288 5.281 0 3.322-2.918 5.157-6.745 5.157-2.516 0-4.655-.705-5.972-1.595v-3.24zM69.063 47h3.51V28.2h-3.51V47zm19.983-2.845c3.958 0 6.074-2.544 6.074-6.56 0-4.044-2.117-6.58-6.074-6.58h-3.914v13.14h3.914zM81.936 28.2h7.227c5.564 0 9.162 3.672 9.162 9.396 0 5.728-3.598 9.404-9.162 9.404h-7.227V28.2zm33.948 0v2.816h-8.498v4.523h7.622v2.784h-7.624v5.832h8.5V47h-11.706V28.2h11.706zm12.465 8.513h3.484c2.063 0 3.226-1.134 3.226-2.877 0-1.744-1.163-2.88-3.226-2.88h-3.484v5.758-.001zm0 2.658V47h-3.101V28.2h6.644c3.788 0 6.239 1.955 6.239 5.636 0 3.147-1.36 4.955-4.259 5.42L140.465 47h-3.527l-6.383-7.627h-2.205l-.001-.002zM10.478 9.68c1.373-.504 2.444-2.015 2.444-4.093 0-3.464-2.444-5.258-6.354-5.258H0V19.66h7.178c3.91 0 6.353-1.921 6.353-5.542 0-2.047-1.282-3.842-3.053-4.44zM3.085 8.451V3.162h3.453c2.17 0 3.33.787 3.33 2.613s-1.161 2.676-3.33 2.676H3.085zm0 2.709h4.031c2.14 0 3.3 1.069 3.3 2.833 0 1.731-1.161 2.835-3.298 2.835H3.086v-5.67l-.001.002zm24.777 8.815c4.49 0 7.515-2.708 7.515-7.997V.328H32.2v11.27c0 3.717-1.528 5.45-4.338 5.45s-4.337-1.733-4.337-5.45V.329h-3.177v11.617c0 5.322 3.054 8.03 7.514 8.03zm14.994-1.7c1.314.945 3.453 1.7 5.957 1.7 3.819 0 6.72-1.953 6.72-5.478 0-2.803-1.343-4.504-4.277-5.605l-3.023-1.134c-1.558-.566-2.443-1.132-2.443-2.55 0-1.574 1.404-2.33 3.298-2.33 2.2 0 3.91.85 5.468 2.079v-3.37C53.06.58 51.135.012 49.026.012c-3.45 0-6.322 1.858-6.322 5.258 0 3.18 1.894 4.565 4.398 5.51l2.72 1.007c1.68.661 2.626 1.26 2.626 2.772 0 1.731-1.496 2.519-3.635 2.519-2.2 0-4.246-.82-5.957-2.236v3.431zM66.884.327H63.71v19.331h3.175V.328zm9.063 19.308h3.061V7.059l12.884 12.876V.298h-3.053v12.363L75.947 0v19.636zM111.743.332v2.895h-8.248V7.88h7.396v2.862h-7.396v5.997h8.248v2.926h-11.362V.332h11.362zm7.396 17.929c1.314.946 3.451 1.7 5.956 1.7 3.818 0 6.721-1.951 6.721-5.478 0-2.802-1.345-4.501-4.277-5.604l-3.024-1.133c-1.558-.567-2.444-1.134-2.444-2.551 0-1.575 1.404-2.33 3.299-2.33 2.199 0 3.909.85 5.468 2.079v-3.37C129.341.568 127.416 0 125.308 0c-3.451 0-6.323 1.858-6.323 5.258 0 3.18 1.894 4.565 4.398 5.51l2.72 1.007c1.68.66 2.627 1.26 2.627 2.771 0 1.732-1.496 2.52-3.636 2.52-2.199 0-4.246-.819-5.955-2.236v3.431zm19.184 0c1.314.946 3.453 1.7 5.957 1.7 3.819 0 6.72-1.951 6.72-5.478 0-2.802-1.344-4.501-4.276-5.604l-3.025-1.133c-1.557-.567-2.444-1.134-2.444-2.551 0-1.575 1.406-2.33 3.299-2.33 2.199 0 3.911.85 5.468 2.079v-3.37C148.527.568 146.602 0 144.494 0c-3.453 0-6.323 1.858-6.323 5.258 0 3.18 1.894 4.565 4.398 5.51l2.719 1.007c1.68.66 2.627 1.26 2.627 2.771 0 1.732-1.496 2.52-3.635 2.52-2.199 0-4.246-.819-5.957-2.236v3.431z" fill="#fff"/></svg>
