<svg width="91" height="71" viewBox="0 0 91 71" fill="none" xmlns="http://www.w3.org/2000/svg"><path d="M11.783 14.142c-3.604 3.267-4.915 10.672 1.581 15l25.918 17.812-12.567-28.84c-2.634-6.805-9.839-8.288-14.932-3.973zM34.094.12c-4.213.086-10.538 5.11-7.724 12.785l12.997 30.703 4.568-32.295C44.992 3.289 38.928-.416 34.094.119zM45.962 10.082h2.458s1.313 0 1.491.62c-.967.792-3.6.89-3.25 5.117l4.132 27.786L63.701 12.82C66.341 5.947 60.8.206 55.883.03c-.23-.017-.46-.03-.699-.03-4.413 0-9.47 3.212-9.222 10.082zM63.182 18.376L50.972 46.87l25.91-17.905c5.973-4.244 5.01-11.029 1.667-14.381-1.401-1.578-3.975-2.798-6.7-2.798-3.222-.001-6.669 1.71-8.667 6.591zM73.98 33.018L49.649 50.043h29.96c6.147 0 10.098-6.349 8.341-12.174-1.176-3.662-4.656-6.536-8.694-6.54-1.7 0-3.504.514-5.274 1.69zM11.082 50.043h29.519L16.262 33.018c-5.622-3.619-11.945-1.502-14.228 4.504-1.934 6.875 2.897 12.52 9.048 12.52zM0 62.364c0 2.899 2.367 8.176 11.402 8.176 8.33 0 10.961-3.828 10.961-5.584h-6.449s-.306 2.32-3.944 2.32c-3.64 0-4.625-3.044-4.625-4.804 0-1.753.984-4.633 4.625-4.633 3.638 0 3.944 2.02 3.944 2.02h6.45c0-1.758-1.931-5.533-10.962-5.533C2.367 54.326 0 59.946 0 62.364zM67.637 62.364c0 2.899 2.369 8.176 11.4 8.176 8.33 0 10.963-3.828 10.963-5.584h-6.445s-.308 2.32-3.947 2.32c-3.64 0-4.627-3.044-4.627-4.804 0-1.753.986-4.633 4.627-4.633 3.64 0 3.947 2.02 3.947 2.02H90c0-1.758-1.928-5.533-10.962-5.533-9.033 0-11.401 5.62-11.401 8.038zM39.988 54.597v9.815l-7.505-9.815h-8.444v15.547h5.789v-9.929l7.374 9.929h8.575V54.597h-5.789zM58.54 66.43v.02h-4.824v-2.854h4.823v.01c1.03 0 1.862.633 1.862 1.413 0 .779-.832 1.41-1.862 1.41zm-4.78-8.81h4.647v.006c.787 0 1.426.519 1.426 1.158 0 .64-.639 1.155-1.426 1.155v.007H53.76V57.62zm9.515 4.258c1.054 0 3.258-1.226 3.258-3.6 0-3.38-6.285-3.682-7.249-3.682H47.707v15.546h11.577c5.569 0 7.806-1.762 7.806-4.705 0-2.94-3.815-3.56-3.815-3.56z" fill="#fff"/></svg>
