<svg width="105" height="87" fill="none" xmlns="http://www.w3.org/2000/svg"><path d="M3.52 2.9H1V10h.95V7.1h1.57c1.47 0 2.41-.82 2.41-2.1 0-1.28-.94-2.1-2.41-2.1zm-.1 3.4H1.95V3.7h1.47c.92 0 1.51.51 1.51 1.3s-.59 1.3-1.51 1.3zm7.55 3.7h.98L9.26 2.9h-.94L5.63 10h.98l.73-2.05h2.9l.73 2.05zM7.62 7.15l.99-2.77c.06-.16.12-.33.17-.54h.02c.05.21.11.38.17.54l.99 2.77H7.62zM17.278 10h1.07l-1.82-3.08c1.19-.27 1.6-1.14 1.6-1.94 0-1.04-.49-2.08-2.35-2.08h-2.63V10h.95V7.05h1.44l1.74 2.95zm-3.18-6.3h1.57c1.09 0 1.46.55 1.46 1.28 0 .71-.36 1.27-1.46 1.27h-1.57V3.7zm9.86-.8h-5.41v.8h2.23V10h.95V3.7h2.23v-.8zm1.095 7.1h.85V4.86c0-.43-.01-.69-.03-.94h.02c.11.32.24.56.44.91l3.01 5.17h1.15V2.9h-.85v5.14c0 .43.01.69.03.94h-.02c-.11-.3-.24-.56-.44-.91l-3.01-5.17h-1.15V10zm8.391-.8V6.76h3.28v-.8h-3.28V3.7h3.45v-.8h-4.4V10h4.47v-.8h-3.52zm9.303.8h1.07l-1.82-3.08c1.19-.27 1.6-1.14 1.6-1.94 0-1.04-.49-2.08-2.35-2.08h-2.63V10h.95V7.05h1.44l1.74 2.95zm-3.18-6.3h1.57c1.09 0 1.46.55 1.46 1.28 0 .71-.36 1.27-1.46 1.27h-1.57V3.7zm11.938 2.63c.81-.23 1.19-.87 1.19-1.54 0-.84-.49-1.89-2.36-1.89h-2.47V10h2.68c1.8 0 2.35-1.04 2.35-1.95 0-.95-.54-1.57-1.39-1.72zm-1.17-2.63c1.15 0 1.42.6 1.42 1.16 0 .49-.2 1.12-1.42 1.12h-1.52V3.7h1.52zm.16 5.5h-1.68V6.78h1.78c.97 0 1.36.52 1.36 1.18 0 .64-.35 1.24-1.46 1.24zm8.395.8h.98l-2.69-7.1h-.94L53.55 10h.98l.73-2.05h2.9l.73 2.05zm-3.35-2.85l.99-2.77c.06-.16.12-.33.17-.54h.02c.05.21.11.38.17.54l.99 2.77h-2.34zM61.068 10h.85V4.86c0-.43-.01-.69-.03-.94h.02c.11.32.24.56.44.91l3.01 5.17h1.15V2.9h-.85v5.14c0 .43.01.69.03.94h-.02c-.11-.3-.24-.56-.44-.91l-3.01-5.17h-1.15V10zm11.812 0h1.11l-2.83-4.26.06-.06 2.55-2.78h-1.19l-3.12 3.52V2.9h-.95V10h.95V7.58l1.05-1.16L72.88 10zm4.108.17c1.77 0 2.59-.99 2.59-2.09 0-1.29-.86-1.78-1.96-2.01l-1.04-.22c-.79-.17-1.16-.53-1.16-1.22 0-.72.6-1.15 1.47-1.15 1.05 0 1.58.52 1.7 1.47l.95-.2c-.14-1.39-1.22-2.02-2.63-2.02-1.51 0-2.47.8-2.47 1.99 0 1.22.77 1.75 1.78 1.96l1.03.21c.83.17 1.35.44 1.35 1.28 0 .9-.81 1.22-1.58 1.22-1.25 0-1.79-.77-1.92-1.64l-.96.14c.12 1.3 1.04 2.28 2.85 2.28zM81.85 5h-1.17v1.18h1.17V5zm0 3.82h-1.17V10h1.17V8.82z" fill="#30363D"/><g clip-path="url(#clip0)" fill-rule="evenodd" clip-rule="evenodd" fill="#30363D"><path d="M24.98 46.307h14.351c12.942 0 21.192 7.892 21.192 20.207 0 13.64-9.148 20.28-23.723 20.28H24.98V46.307zm13.464 9.288c-.522 0-1.19.073-2.082.073v21.827c7.29 0 12.942-2.878 12.942-11.209-.006-7.151-4.613-10.69-10.86-10.69zM105.001 58.094v-10.69c-2.901-1.18-5.505-1.843-9.148-1.843-11.97 0-21.568 9-21.568 20.87 0 11.87 9.446 20.575 21.344 20.575 4.237 0 7.138-.885 9.372-2.583V73.727c-3.345 2.065-5.651 2.95-8.778 2.95-6.021 0-10.708-4.352-10.708-10.769 0-6.267 4.76-10.841 10.709-10.841 3.272.005 5.651 1.113 8.777 3.027zM0 38.193v1.92h7.958v-1.92c-2.306-.072-2.677-.367-2.677-1.92v-9.661l4.76 13.496h2.008l5.13-13.496v9.438c0 1.993 0 1.993-2.828 2.138v1.92h9.22v-1.915c-2.677 0-2.75-.295-2.75-1.697v-9.439c0-1.547.225-2.065 2.75-2.065V23h-7.88l-4.018 10.841L7.959 23H0v1.992c2.234 0 2.604 0 2.604 1.92v9.072c0 1.764 0 2.209-2.604 2.209zM38.586 38.193v1.92h7.363v-1.92c-1.785-.072-1.785-.295-1.785-2.727V33.4c0-1.992.893-3.612 2.75-3.612 1.488 0 1.937.958 1.937 2.288v4.352c0 1.474-.073 1.77-1.858 1.77v1.92h6.617v-1.926c-1.56 0-1.712-.15-1.712-1.625v-3.022c0-2.065.966-3.834 2.902-3.834 1.487 0 1.785.884 1.785 2.654v4.424c0 1.253 0 1.403-1.785 1.403v1.92h7.29v-1.92c-2.234 0-2.38.072-2.38-1.18v-4.942c0-2.805-.667-4.424-3.569-4.424-1.712 0-2.828.662-4.237 2.137-.747-1.33-1.785-2.215-3.57-2.215-1.857 0-3.126.957-4.164 2.36v-1.987h-5.578v1.77c2.233 0 2.452.072 2.452 1.841v4.058c0 2.582 0 2.582-2.458 2.582zM.36 46.307v40.487h11.224l.079-15.488h10.932V61.94h-10.86l-.072-6.267h11.746v-9.366H.359zM62.977 23.006h5.208v6.266c1.414-1.18 2.306-1.625 3.72-1.625 2.975 0 4.984 2.655 4.984 6.345 0 3.984-2.009 6.561-5.427 6.561-1.639 0-2.677-.518-3.794-1.697l-1.044 1.402h-1.56V26.985c0-1.992-.151-2.215-2.082-2.215v-1.764h-.005zm10.416 10.98c0-2.805-1.044-4.202-2.531-4.202-1.936 0-2.75 1.547-2.75 4.425 0 2.51.965 4.201 2.677 4.201 1.414 0 2.604-1.324 2.604-4.424zM92.719 38.193v1.92h8.031v-1.92c-2.234 0-2.453.072-2.453-1.697V33.84c0-2.432.82-4.647 3.048-4.647.151 0 .297 0 .746.15-.746.368-1.263.885-1.263 1.698 0 .957.747 1.625 1.712 1.625 1.19 0 2.009-.885 2.009-2.215 0-1.625-1.189-2.805-2.828-2.805-1.342 0-2.307.662-3.497 1.992v-1.697H92.72v1.77c1.936 0 2.452 0 2.452 1.625v5.014c.006 1.692.006 1.842-2.452 1.842zM82.608 34.364c0 2.36 1.116 3.985 3.126 3.985 1.784 0 2.604-1.035 2.901-2.655h2.234c-.37 3.1-2.453 4.792-5.427 4.792-3.57 0-6.247-2.137-6.247-6.266 0-3.762 2.38-6.562 5.95-6.562 3.496 0 5.724 2.655 5.724 6.712h-8.261v-.006zm2.53-4.802c-1.487 0-2.379 1.035-2.379 2.877h4.686c0-1.92-.746-2.878-2.306-2.878zM28.473 34.364c0 2.36 1.19 3.985 3.199 3.985 1.784 0 2.604-1.035 2.901-2.655h2.155c-.37 3.1-2.38 4.792-5.354 4.792-3.57 0-6.32-2.137-6.32-6.266 0-3.762 2.453-6.562 6.023-6.562 3.496 0 5.651 2.655 5.651 6.712h-8.255v-.006zm2.604-4.802c-1.488 0-2.38 1.035-2.38 2.877h4.613c0-1.993-.746-2.878-2.233-2.878zM61.719 86.794h11.23V46.307h-11.23v40.487z"/></g><defs><clipPath id="clip0"><path fill="#fff" transform="translate(0 23)" d="M0 0h105v64H0z"/></clipPath></defs></svg>