<svg width="134" height="35" viewBox="0 0 134 35" fill="none" xmlns="http://www.w3.org/2000/svg"><path d="M64.403 9.468c-1.111 0-1.712.122-2.61.535-1.64.752-2.869 1.981-3.969 3.962l-.341.618.043-1.1c.025-.604.065-1.736.09-2.51l.047-1.408h-.238c-.302 0-9.773 1.894-10.06 2.01-.188.075-.217.157-.217.614 0 .467.026.532.216.571.119.026.554.112.967.19.838.163 1.086.292 1.43.749.637.844.77 2.333.763 8.63-.007 5.151-.112 7.718-.356 8.52-.302.984-.83 1.488-1.758 1.66-.298.054-.694.133-.877.173l-.334.072-.029.661c-.022.464.007.683.097.74.068.044 3.307.069 7.2.058l7.074-.022.029-.74c.014-.406-.007-.74-.047-.74-.55 0-2.232-.23-2.498-.342-.798-.334-1.186-1.05-1.352-2.502-.197-1.707-.312-5.949-.258-9.428.053-3.512.053-3.527.276-3.764.514-.55 1.812-.978 2.973-.981.935-.004 1.895.237 2.922.73.493.237.946.41 1.007.384.13-.05 2.451-6.183 2.451-6.474-.007-.435-1.326-.866-2.641-.866z" fill="#fff"/><path d="M47.16 20.13c-.5-4.245-2.297-7.347-5.27-9.098-3.3-1.941-8.314-2.056-11.876-.266-2.574 1.29-4.673 3.778-5.608 6.636-.963 2.947-.963 6.819 0 9.827.618 1.927 1.456 3.336 2.746 4.616 1.55 1.535 3.577 2.516 5.895 2.854.83.122 3.448.122 4.307.003a14.11 14.11 0 001.56-.341c4.202-1.219 7.07-4.447 8.055-9.07.245-1.128.342-3.864.19-5.161zM36.516 32.844c-2.613.776-4.486-1.715-5.208-6.93-.234-1.686-.234-6.28.003-8.207.51-4.195 1.805-6.323 3.846-6.326.92-.004 1.431.223 2.15.949 1.711 1.725 2.523 5.014 2.51 10.19-.012 4.13-.421 6.73-1.342 8.487-.445.852-1.283 1.636-1.959 1.837z" fill="#fff"/><path d="M12.642 3.253h3.009c3.458 0 4.022.072 5.248.672 1.776.87 3.073 2.595 4.202 5.59.46 1.218.457 1.214 1.481.902l.68-.205-.062-4.41c-.036-2.427-.09-4.584-.125-4.796l-.062-.38L13.821.6C6.567.582.49.593.316.625L0 .683l.029.783.029.784 1.002.122c1.305.155 2.082.521 2.545 1.197 1.043 1.517 1.23 3.584 1.23 13.408-.004 10.46-.22 13.002-1.226 14.32-.518.68-.938.903-2.114 1.122-1.53.284-1.48.248-1.48 1.043 0 .442.039.68.118.711.173.069 17.046.076 17.229.004.23-.086.216-1.334-.018-1.456-.094-.046-.662-.161-1.265-.251-.604-.09-1.273-.241-1.485-.331-1.107-.482-1.722-1.812-1.952-4.22-.165-1.726-.295-4.907-.295-7.261V18.5l1.029.032c2.189.065 3.32.184 3.777.385.992.439 1.79 1.66 2.207 3.368l.223.91.78.028.78.03v-11.5l-.78.029-.78.029-.226.905c-.442 1.758-1.161 2.84-2.222 3.329-.43.201-.737.255-1.768.316-.687.04-1.646.076-2.132.08l-.884.003v-2.843c0-2.85.151-8.908.248-9.85l.043-.5zM132.371 23.516c-.806-1.607-2.283-2.71-5.385-4.004-2.531-1.057-3.803-1.79-4.58-2.639-.629-.69-.812-1.244-.751-2.275.058-.95.291-1.517.884-2.154.766-.816 1.816-1.103 3.077-.837 2.067.439 3.394 1.87 4.533 4.892.406 1.079.457 1.114 1.186.841l.464-.172-.014-1.244c-.011-.683-.044-2.117-.079-3.188l-.062-1.949-.345-.147c-1.89-.802-5.496-1.298-7.843-1.086-2.667.245-4.626 1.093-6.136 2.653-1.499 1.553-2.175 3.376-2.056 5.536.101 1.787.629 3.073 1.729 4.202 1.021 1.046 1.88 1.542 4.339 2.502 3.972 1.55 5.021 2.47 5.014 4.382-.007 1.614-.863 2.796-2.423 3.346-.557.198-1.97.194-2.721-.003-1.973-.522-3.483-2.229-4.773-5.4l-.331-.812-.388.018c-.212.01-.507.076-.651.144l-.266.126.025 1.384c.015.762.05 2.368.086 3.57l.062 2.185.442.19c.902.388 3.612.982 5.316 1.165.212.021 1.373.029 2.581.018 2.099-.022 2.25-.036 3.307-.313 3.117-.812 5.133-2.549 6.028-5.187.273-.809.313-1.057.352-2.261.051-1.607-.097-2.437-.621-3.483zM108.273 10.435c-2.627-1.315-6.682-1.222-9.651.227-2.811 1.37-4.745 3.655-5.827 6.883-.564 1.682-.74 3.034-.683 5.212.036 1.377.097 2.089.24 2.725 1.108 4.946 4.501 8.31 9.246 9.166 1.042.187 3.415.19 4.472.008 1.506-.263 3.246-.935 4.342-1.676 1.337-.902 2.71-2.26 2.71-2.685 0-.259-.46-.848-.661-.848-.086 0-.46.194-.827.431-1.308.845-2.559 1.194-4.299 1.194-2.401 0-3.922-.6-5.449-2.143-.676-.683-.957-1.053-1.305-1.729-.77-1.488-1.186-3.203-1.248-5.14l-.025-.837 7.074-.026 7.075-.025.032-.478c.018-.262-.018-.953-.076-1.531-.445-4.289-2.185-7.247-5.14-8.728zm-7.128 8.717l-1.794.029.004-.388c0-.212.061-.773.137-1.248.596-3.85 2.034-6.16 3.831-6.165 1.654-.003 2.675 2.276 2.887 6.442l.061 1.183-1.671.06c-.914.033-2.47.073-3.455.087zM82.64 9.979c-.564-.115-1.07-.14-2.17-.101-1.65.057-2.786.306-4.016.873-.41.187-.765.342-.794.342-.029 0-.025-2.495.007-5.547.047-4.295.036-5.542-.054-5.546C75.3-.004 65.538 1.858 65.43 1.945c-.08.064-.115.27-.097.582.032.543-.033.5 1.157.77.36.078.777.236.931.344.395.284.726.895.956 1.772.18.694.205 1.187.288 5.874.086 4.78.068 9.698-.065 18.706l-.054 3.742.701.158c1.014.23 3.911.712 4.86.81 1.391.14 4.633.121 5.669-.033 4.486-.676 7.865-3.278 9.44-7.265.416-1.057.819-2.685.959-3.893.165-1.416.072-4.249-.176-5.388-.95-4.367-3.674-7.383-7.358-8.145zM75.83 32.545c-.122-.32-.266-11.527-.209-16.006l.047-3.494.633-.187c.424-.126.92-.187 1.499-.187.808 0 .913.025 1.596.36 1.642.812 2.771 2.832 3.296 5.902.194 1.136.216 4.234.043 5.593-.428 3.34-1.52 6.035-2.973 7.34-.578.521-1.117.798-1.815.931-.503.094-.654.097-1.567.025-.388-.029-.475-.072-.55-.277z" fill="#fff"/></svg>
