<svg width="306" height="43" viewBox="0 0 306 43" fill="none" xmlns="http://www.w3.org/2000/svg"><path d="M8.724 23.723V12.215l-3.462 1.542s-.882 1.978-.725 4.838c.123 2.243 1.376 4.922 2.333 6.043l1.854-.915zM18.855.04c.857.074 2.193.494 3.207 1.376 1.071 1.04 1.319 2.622.94 4.056-.338 1.278-.71 1.946-2.012 2.828-1.319.89-2.918.816-2.918.816v5.547l2.696 2.185-2.696 2.176v7.55s2.704-1.549 4.377-5.02c0 0 .066-.189.223-.543.148.931.066 2.81-.99 5.226-.79 1.822-2.233 3.57-4.039 4.567-3.198 1.772-5.605 1.945-8.177 1.41-3.017-.619-5.754-2.317-7.617-5.268C.54 24.868-.047 22.445.003 19.84c.107-5.11 3.907-9.52 8.3-11.161.537-.198.751-.33 1.51-.404-.347.239-.75.544-1.254.874-1.41.931-2.621 2.778-3.14 4.204l8.523-3.8v11.911L7.067 24.91c.783 1.088 3.166 2.728 5.194 2.959 3.462.38 5.49-1.13 5.49-1.13v-7.715l-2.68-2.176 2.688-2.176V9.124c-1.46-.173-3.24-.651-4.278-.907-1.534-.387-6.628-1.813-7.428-1.937-.8-.115-1.788-.082-2.382.453-.602.536-.964 1.484-.717 2.341.14.487.478.767.725 1.04 0 0-.296-.026-.824-.347-.964-.577-1.69-1.706-1.78-3.091-.116-1.83.634-3.47 2.143-4.575C4.528 1.26 6.004.724 7.727.963c2.506.355 5.886 1.772 8.886 2.498 1.162.28 2.07.379 2.885-.1.38-.271 1.055-.98.503-1.928-.643-1.105-1.863-1.08-2.902-1.27.89-.19 1.088-.19 1.756-.123zM52.011 20.722l-3.874 2.835V14.12l3.874 6.603zm-.107-9.068s-2.613 1.583-4.369 2.63c-1.756 1.038-4.113 2.193-4.113 2.193v10.971l-1.566 1.262.206.247 1.533-1.237 4.797 4.345 8.342-6.611-.197-.24-4.6 3.62-3.792-3.554v-1.327l7.617-5.605-3.858-6.694zM30.034 36.186c1.097.272 3.026.42 5.358-.75 2.58-1.294 3.875-4.031 3.858-6.842l.107-3.981v-8.697l1.649-1.261-.19-.247-1.624 1.22-3.742-4.155-4.806 4.13V1.573l-6 4.64c.263.174 1.12.33 1.145 1.526v19.643L23.25 29.27l.173.264 1.228-.915 3.421 3.182 5.383-4.287-.198-.247-1.27 1.006-1.335-1.328.017-10.947 1.566-1.335 2.341 2.902s-.008 7.089 0 9.438c-.016 2.506-.025 5.639-1.343 7.147-1.328 1.525-1.855 1.64-3.199 2.036zM67.392 35.197c-2.152-.247-3.05-1.55-3.034-2.58.017-.66.61-1.954 1.921-2.127 1.31-.181 2.646.429 3.767 1.756l4.97-5.482-.238-.214-1.336 1.492c-1.351-1.542-3.28-2.514-5.193-2.795V8.522l12.9 23.502s.124.271.652.271c.453 0 .346-.37.346-.37V8.275c1.047-.042 2.646-.619 3.43-1.418 2.48-2.556 1.467-5.342 1.195-5.606-.149 1.22-1.088 2.44-2.646 2.449-2.053.008-3.298-1.509-3.298-1.509l-4.962 5.655.239.214 1.426-1.624c1.74 1.6 3.009 1.748 4.32 1.839V22L72.27 4.606c-.865-1.434-2.184-2.695-4.253-2.712-2.374-.016-4.08 2.086-4.278 3.891-.23 2.036.025 2.506.025 2.506s.346-2.267 1.756-2.25c1.253.016 1.912 1.179 2.415 2.044v5.037c-1.303.09-4.69.239-4.897 3.767-.016 1.31.8 2.687 1.509 3.149.915.602 1.632.593 1.632.593s-1.096-.585-.767-1.739c.297-1.039 2.449-1.203 2.523-.775v7.106c-1.039-.008-4.353.099-5.845 2.943-.898 1.714-.849 3.635.116 4.995.783 1.105 2.399 2.514 5.185 2.036zM94.753 20.722l-3.874 2.835V14.12l3.874 6.603zm-.107-9.068s-2.613 1.583-4.369 2.63c-1.756 1.038-4.105 2.193-4.105 2.193v10.971l-1.574 1.262.206.247 1.533-1.237 4.797 4.345 8.343-6.611-.198-.24-4.608 3.62-3.792-3.554v-1.327l7.617-5.605-3.85-6.694zM106.301 32.139l-4.089-3.397-1.797 1.303-.181-.256 1.83-1.335v-9.505c.09-3.915-3.586-2.943-3.388-7.097.09-1.822 1.854-3.207 2.745-3.66.956-.486 1.986-.486 1.986-.486s-1.673 1.046-1.269 2.555c.626 2.325 4.591 2.53 4.666 5.622v10.782l2.926 2.35.766-.602V16.74l-1.582-1.566 4.064-3.602 3.717 3.289-1.417 1.533v10.345l3.478 2.869.618-.396V16.765l-1.582-1.484 4.072-3.726 3.808 3.15 1.525-1.353.206.24-3.421 3.008v10.147l-8.762 5.408-4.484-3.553-4.435 3.537zM285.703 20.722l-3.874 2.835V14.12l3.874 6.603zm-.107-9.068s-2.613 1.583-4.369 2.63c-1.756 1.038-4.113 2.193-4.113 2.193v10.971l-1.575 1.262.206.247 1.533-1.237 4.798 4.345 8.342-6.611-.198-.24-4.608 3.62-3.792-3.554v-1.327l7.617-5.605-3.841-6.694zM246.418 16.245l.206.24 1.575-1.352 2.332 2.637v9.068l-1.137 1.039 3.635 4.105 3.734-3.668-1.533-1.591V15.75l.923-.742 2.58 3.017v9.043l-.964.964 3.421 3.85 3.66-3.66-1.344-1.41-.033-11.013.981-.807 2.696 2.959v8.993l-.891.89 3.784 4.122 5.07-4.69-.215-.231-1.228 1.137-1.888-2.093V15.809l1.822-1.385-.189-.256-1.83 1.393-3.454-3.874-4.93 3.9-3.462-3.76-4.765 3.734-3.486-3.717-5.07 4.402z" fill="#fff"/><path d="M236.09 15.966l.206.239 1.327-1.146 2.077 2.457v10.37l-1.467 1.277.206.24 1.542-1.311 3.346 3.866 4.839-4.328-.206-.239-1.418 1.261-2.003-2.308v-10.14l1.69-1.458-.206-.24-1.607 1.377-3.52-4.105-4.806 4.188zM237.484 7.384l3.652-3.338 2.959 3.28-3.66 3.331-2.951-3.273z" fill="#fff"/><path d="M222.456 23.722V12.215l-3.462 1.541s-.882 1.979-.725 4.839c.123 2.242 1.376 4.921 2.332 6.042l1.855-.915zM232.587.04c.857.075 2.193.495 3.207 1.377 1.071 1.039 1.319 2.621.939 4.056-.338 1.277-.709 1.945-2.019 2.827-1.319.89-2.918.816-2.918.816v5.548l2.695 2.184-2.695 2.177v7.55s2.703-1.55 4.377-5.02c0 0 .066-.19.222-.544.149.932.066 2.811-.989 5.226-.791 1.822-2.234 3.57-4.039 4.567-3.198 1.772-5.605 1.946-8.177 1.41-3.017-.618-5.754-2.317-7.617-5.268-1.311-2.077-1.904-4.492-1.847-7.097.108-5.11 3.908-9.521 8.301-11.161.536-.198.742-.33 1.509-.404-.346.239-.75.544-1.253.873-1.41.932-2.621 2.778-3.141 4.204l8.516-3.8v11.912l-6.867 3.446c.783 1.088 3.165 2.728 5.193 2.959 3.462.38 5.49-1.13 5.49-1.13v-7.715l-2.679-2.176 2.679-2.177V9.132c-1.459-.173-3.239-.651-4.278-.907-1.525-.38-6.628-1.805-7.427-1.929-.8-.115-1.789-.082-2.383.453-.601.536-.964 1.484-.717 2.342.14.486.478.766.726 1.038 0 0-.297-.025-.825-.346-.964-.577-1.698-1.706-1.78-3.1-.116-1.821.635-3.47 2.143-4.575 1.311-.84 2.786-1.376 4.509-1.137 2.506.354 5.886 1.772 8.886 2.498 1.163.28 2.069.379 2.886-.1.379-.271 1.055-.98.502-1.928-.643-1.105-1.863-1.08-2.901-1.27.906-.198 1.104-.198 1.772-.132zM296.453 13.781v5.45l1.814 1.582s3.94-3.157 5.374-6.075c0 0-1.772 2.398-4.154 1.665-1.995-.61-3.034-2.622-3.034-2.622zm-4.402 14.45s1.723-2.852 4.691-2.242c2.844.594 3.833 3.595 3.833 3.595v-6.916l-1.987-1.723c-2.176 2.184-6.059 5.35-6.537 7.287zm2.828 5.252c-.553.165-2.96-.42-3.537-2.91-.56-2.432 1.121-4.072 3.669-6.652l-3.009-2.745v-5.243s2.209-1.105 3.94-2.185c1.731-1.088 3.503-2.258 3.503-2.258s1.295 1.632 2.754 1.5c2.283-.198 2.176-2.003 2.11-2.424.387.693 1.434 2.77-2.58 7.395l3.272 2.637v6.81s-3.8 1.978-7.394 4.6c0 0-2.003-2.507-3.742-1.312-1.179.8-.635 2.168 1.014 2.787zM163.468 25.734l4.221 3.816V17.861l-4.221-3.907v11.78zm8.705-9.546l1.476-1.352.214.24-1.434 1.326v10.832s-2.72 1.442-4.625 2.514a132.691 132.691 0 00-3.932 2.333l-4.995-4.212-1.319 1.145-.214-.239 1.385-1.211v-11.64h.016s2.358-1.063 4.344-2.193c1.781-1.005 3.767-2.168 3.767-2.168l5.317 4.625zM181.996 15.092l3.174-3.24s.437.38.84.586c.231.115 1.196.61 2.078.123.478-.264.544-.33 1.071-.824.108 2.522-1.104 4.295-2.613 5.028-.618.305-2.423.882-4.311-1.426v11.656l2.011 1.772 1.674-1.384.198.247-5.251 4.385-3.998-3.635-1.435 1.352-.239-.247 2.193-1.979.016-10.056-1.681-2.226-1.443 1.261-.206-.23 5.086-4.576 2.836 3.413zM195.387 19.939l5.869-8.54s.775.915 2.118 1.27c1.83.477 3.43-1.295 3.43-1.295-.305 2.283-1.468 4.872-3.85 5.268-2.102.354-4.064-1.287-4.064-1.287l-.379.594 8.144 12.307 1.632-1.426.206.24-5.588 4.887-7.518-12.018z" fill="#fff"/><path d="M190.538 8.546c0-1.846-.758-2.975-1.739-2.901l6.405-4.501v25.455l1.69 1.78 1.277-1.112.198.239-5.16 4.5-3.495-3.28-1.402 1.228-.222-.239 2.44-2.127V8.546M149.43 15.702s-.709.8-1.822.8-1.838-.808-1.838-.808v3.487s.725-.808 1.838-.808 1.822.766 1.822.766v-3.437zm0-7.468l-2.465-2.168-1.195.94v8.168s.734.932 1.847.932c1.112 0 1.813-.89 1.813-.89V8.234zm-3.66 23.147s1.492.395 2.58-.495c1.212-.997 1.08-2.399 1.08-2.399v-8.82s-.701-.907-1.813-.907c-1.113 0-1.847.932-1.847.932V31.38zm-8.746-23.255c0-1.714-.701-2.679-1.83-2.703-1.624-.042-2.011 2.258-2.011 2.258s-.297-1.772 1.187-3.371c.832-.899 2.382-2.16 4.814-1.575 2.506.61 3.223 2.556 3.223 4.27V30.68s.948.115 1.599.256c.75.156 1.467.354 1.467.354V2.744h.314v3.85l5.143-4.139 3.767 3.347 1.756-1.517.198.24-1.838 1.582v22.018c-.091 1.434-.322 2.893-1.682 3.734-3.025 1.797-6.677-.272-9.925-.742-2.415-.355-6.199-.816-7.155 1.401-.313.726-.288 1.847.808 2.58 2.193 1.468 11.978-2.464 15.333-.906 3.058 1.426 3.05 3.676 2.571 5.226-.791 2.901-4.459 3.413-4.459 3.413s1.797-1.04 1.286-2.77c-.256-.874-.849-1.113-2.77-.907-4.196.478-9.208 2.506-12.571 1.096-1.739-.725-2.959-2.893-2.844-5.02.091-3.066 3.627-4.278 3.627-4.278V19.609c-.099-.453-1.995-.33-2.407.503-.626 1.261.783 1.838.783 1.838s-1.17.174-2.151-.956c-.478-.552-1.476-2.481-.182-4.27 1.064-1.475 2.342-1.73 3.949-1.904V8.126z" fill="#fff"/></svg>
