<svg width="115" height="84" fill="none" xmlns="http://www.w3.org/2000/svg"><path d="M4.64 6.33c.81-.23 1.19-.87 1.19-1.54 0-.84-.49-1.89-2.36-1.89H1V10h2.68c1.8 0 2.35-1.04 2.35-1.95 0-.95-.54-1.57-1.39-1.72zM3.47 3.7c1.15 0 1.42.6 1.42 1.16 0 .49-.2 1.12-1.42 1.12H1.95V3.7h1.52zm.16 5.5H1.95V6.78h1.78c.97 0 1.36.52 1.36 1.18 0 .64-.35 1.24-1.46 1.24zm8.082.8h1.07l-1.82-3.08c1.19-.27 1.6-1.14 1.6-1.94 0-1.04-.49-2.08-2.35-2.08h-2.63V10h.95V7.05h1.44l1.74 2.95zm-3.18-6.3h1.57c1.09 0 1.46.55 1.46 1.28 0 .71-.36 1.27-1.46 1.27h-1.57V3.7zm8.205 6.47c1.96 0 3.24-1.42 3.24-3.72 0-2.32-1.28-3.72-3.24-3.72-1.97 0-3.25 1.4-3.25 3.72 0 2.27 1.28 3.72 3.25 3.72zm0-.8c-1.42 0-2.25-1.14-2.25-2.92 0-1.82.83-2.92 2.25-2.92s2.24 1.1 2.24 2.92c0 1.81-.82 2.92-2.24 2.92zM25.8 10h1.11l-2.83-4.26.06-.06 2.55-2.78H25.5l-3.12 3.52V2.9h-.95V10h.95V7.58l1.05-1.16L25.8 10zm3.26-.8V6.76h3.28v-.8h-3.28V3.7h3.45v-.8h-4.4V10h4.47v-.8h-3.52zm9.302.8h1.07l-1.82-3.08c1.19-.27 1.6-1.14 1.6-1.94 0-1.04-.49-2.08-2.35-2.08h-2.63V10h.95V7.05h1.44l1.74 2.95zm-3.18-6.3h1.57c1.09 0 1.46.55 1.46 1.28 0 .71-.36 1.27-1.46 1.27h-1.57V3.7zm4.703 3.12v.8h2.89v-.8h-2.89zM44.272 10h2.31c2.07 0 3.39-1.49 3.39-3.56 0-2.11-1.33-3.54-3.37-3.54h-2.33V10zm.95-.8V3.7h1.36c1.53 0 2.38 1.16 2.38 2.74 0 1.52-.87 2.76-2.4 2.76h-1.34zm7.148 0V6.76h3.28v-.8h-3.28V3.7h3.45v-.8h-4.4V10h4.47v-.8h-3.52zm9.81.8h.98l-2.69-7.1h-.94L56.84 10h.98l.73-2.05h2.9l.73 2.05zm-3.35-2.85l.99-2.77c.06-.16.12-.33.17-.54h.02c.05.21.11.38.17.54l.99 2.77h-2.34zM64.36 10h4.23v-.8h-3.28V2.9h-.95V10zm6.38-.8V6.76h3.28v-.8h-3.28V3.7h3.45v-.8h-4.4V10h4.47v-.8h-3.52zm9.302.8h1.07l-1.82-3.08c1.19-.27 1.6-1.14 1.6-1.94 0-1.04-.49-2.08-2.35-2.08h-2.63V10h.95V7.05h1.44l1.74 2.95zm-3.18-6.3h1.57c1.09 0 1.46.55 1.46 1.28 0 .71-.36 1.27-1.46 1.27h-1.57V3.7zm6.57 1.3h-1.17v1.18h1.17V5zm0 3.82h-1.17V10h1.17V8.82z" fill="#30363D"/><g clip-path="url(#clip0)" fill="#30363D"><path fill-rule="evenodd" clip-rule="evenodd" d="M26.591 29.973l-2.342-2.336v-.016l2.962 1.734.692-.69-1.68-2.973h.015l2.323 2.317.673-.672-2.777-2.77-1.197 1.194 1.443 2.312-.008.008-2.334-1.423-1.22 1.216 2.778 2.77.672-.671z"/><path d="M32.96 25.675l-.297-.699-1.752.742-.326-.764 1.613-.682-.298-.7-1.613.683-.316-.744 1.752-.742-.297-.698-2.754 1.165 1.534 3.605 2.755-1.166zM34.776 25.284L34.429 22l.01-.011 1.208 3.205.974-.101.57-3.366.011.01.344 3.258.946-.1-.41-3.894-1.683.176-.338 2.703h-.012l-.916-2.57-1.715.18.411 3.895.947-.1z"/><path fill-rule="evenodd" clip-rule="evenodd" d="M41.368 25.427c.037.01 1.432.434 1.709-.67.136-.543-.195-.966-.686-1.16l.003-.011c.448.027.914-.159 1.032-.627.167-.668-.355-1.139-1.07-1.323l-1.828-.454-.95 3.8 1.79.445zm-.55-.92l.206-.82.691.172a.428.428 0 01.279.522c-.06.236-.294.346-.558.28l-.617-.154zm.582-2.326l.575.144c.248.061.395.26.341.476-.072.29-.285.354-.57.283l-.54-.13.194-.773"/><path d="M46.181 27.653l.415-.637L45 25.983l.453-.697 1.47.951.415-.636-1.47-.951.442-.678 1.596 1.033.415-.636-2.509-1.626-2.14 3.286 2.51 1.624z"/><path fill-rule="evenodd" clip-rule="evenodd" d="M49.326 27.636l.701-.567.268.33c.218.27.393.561.08.813-.313.254-.563.023-.783-.247l-.266-.33zm-.592.478l.257.316c.35.43.21.57-.13.9a7.226 7.226 0 00-.572.615l.744.916c.186-.27.39-.512.626-.738.429-.436.622-.76.196-1.309l.017-.014c.396.386.922.54 1.378.171.648-.522.246-1.3-.172-1.814l-1.144-1.409-3.051 2.464.683.844 1.168-.942"/><path d="M33.436 30.814c-.245-.146-.538-.195-.832-.195-.686.293-1.322.537-1.91.928-1.664 1.317-2.3 3.465-2.594 5.467-.098 1.025.343 1.953.538 2.88.245 1.562 1.077 2.783 2.056 4.003l.294.097c.049-.097-.049-.243-.049-.39-.93-1.806-2.056-3.71-1.762-6.004.294-.488.93-.927.784-1.562h-.098c-.294.488-.54 1.074-.98 1.318.44-.683.49-1.611.637-2.441.146-.244.392.097.49.146l.146-.195c.098-.049.245-.097.294 0 .098.634.098 1.27-.049 1.807.195-.147.293-.392.392-.587.244-.536-.05-1.074 0-1.61.343-.294.44-.733.684-1.075.881-.34.343.928.784 1.172.196-.292.245-.634.44-.927-.293-.245-.538-.635-.832-.83-.538-.39-.685.488-1.125.536-.637.148-.588.83-.931 1.172-.244-.195-.195-.537-.146-.83.048-.439.538-.488.832-.732.489-.195.587-.733.783-1.122.195-.05.44 0 .538.195.735-.098.538.78 1.078 1.025.635.049.832.586 1.37.781.392-.489-.44-.683-.49-1.171-.391-.587.196-1.368-.342-1.856zm-.294 2.929c-.244.147-.39.538-.538.83.048.098.147.049.245.049.392-.147.342-.586.293-.879zm1.028.39c-.93-.243-.685.928-1.077 1.367-.147.099-.293.245-.44.099-.098-.196 0-.391-.05-.488-.048.243-.293.243-.44.341.049.195.294.098.392.195.44.879-.197 1.757-.637 2.49l-.049.635c.294 1.122.98 2.05 1.322 3.075-.05-.928-.685-1.611-.685-2.538-.196-.977.783-1.172 1.027-1.905.1-.342-.097-.927.392-.976.099-.244.049-.635.049-.83-.244.294-.832.489-.587 1.025-.147.587-.245 1.562-1.029 1.66-.195-.049-.146-.244-.146-.39.44-.293.734-.928.637-1.513.049-.733.979-1.075.88-1.905.05-.244.344-.244.441-.341zm-2.594 1.905c.049-.293.098-.684-.196-.83.146.634-.244 1.073-.343 1.562.294-.097.49-.44.54-.732zm.538.536c.05-.048.098-.243-.049-.243-.245.39-.44.781-.783 1.073-.245.342-.146.879-.294 1.27.098.098.054.247.196.389.196.196.342.539.49.83.097.88.734 1.514.832 2.393.049.342-.049.732.195 1.026.099-.294.197-.684.099-1.026-.099-.342-.196-.733-.343-1.074-.099-.586-.338-1.31-.758-1.82-.329-.401-.222-.67-.32-1.11.147-.584.539-1.121.735-1.708zm-1.81 2.783c-.197-.585.146-1.416-.441-1.806-.245.293-.197.83-.197 1.22 0 1.465.784 2.636 1.273 3.857.197.293.245.781.538 1.025.069-.075.246-.782-.097-1.122-.392-1.075-1.077-2.002-1.077-3.174zm.538-.536c-.034-.307.048-.538-.197-.636a3.722 3.722 0 00.049 1.905c.208.68.783 2 1.274 2.977.146.39.097.927.049 1.318.097-.195.244-.39.293-.585-.147-.782-.196-1.71-.587-2.441-.294-.879-.76-1.427-.881-2.538zm4.112 0c-.148-.196-.294-.44-.49-.587-.44.733-.734 1.611-.44 2.441.44-.097.244-.635.44-.879.05-.439.587-.536.49-.975zm-1.273 1.854c-.637-.684-.196-1.611 0-2.294l-.686.537a2.022 2.022 0 00.587 2.002c.148 0 .099-.148.099-.245zm2.448.293c-.148-.586-.05-1.416-.735-1.562-.245.293-.602.31-.505.7.113.102.211.716.554.569.294.049.343.342.44.537.148.098.246-.098.246-.244zm-.931 2.344c-.49.048-.44-.49-.636-.781-.146.39-.049.78 0 1.17.147.05.244-.146.44-.146.343.098.098.537.147.733.098-.05.148-.147.196-.245.686-.292.343.635.686.879.293-.05.147-.44.39-.586.1-.097.295-.048.295-.195-.049-.293-.245-.683-.587-.44-.392 0-.49-.488-.931-.39zm-.343 2c-.146-.243-.293-.634-.636-.78-.146.146-.343.244-.392.488.147.097.147.342.392.39.197 0 .538.195.636-.098zm1.588-2.54c.063-.093-.2-.954-.1-1.056.045.084.07.117.073.115.006-.003-.047-.115-.072-.115-.158-.3-.54.28-.936.033-.09-.18-.352-.022-.524.011-.05.154.006.29.076.423l.05.093.274-.155c.191-.171.289 0 .289.155 0 .31-.099.332.094.527.027-.046.36-.332.403-.433 0 0 .244.596.373.402zm9.819-9.273l-.881-1.27c-.735-.927-1.567-1.758-2.595-2.147-.378-.144-.864-.445-1.322 0-.878.854-.195 1.806-.49 2.685-.341.585-.93 1.074-1.664 1.025-.342-.195-.587-.537-1.028-.44-.293.342-.832-.048-1.028.44-.195.098-.392.05-.538-.098-.245-.243-.392.147-.538.245-.392.342-.881-.245-1.273.146-.735.878-.343 2.343-.099 3.417.245.88 1.078 1.416 1.763 1.953.147.244-.196.39-.098.732.147.585.343 1.318 1.077 1.367-.147-.782-.44-1.905.294-2.49.147-.049.244-.097.343.049.049.439-.392.78-.294 1.269.098.538 0 1.319.734 1.367.147-.196.098-.439.293-.586.197-.049.294.049.392.196.196.194.245-.099.343-.245.099-.048.294-.097.392.049.147.147.44.147.539-.097-.197-.928-.442-1.856-1.47-2.148-.293-.097-.097-.488.05-.537-.343-.39-.539.292-.882 0-.147-.342.392-.342.441-.635.343-.146.685.293.881-.195.148-.05.196.098.196.195-.048.293-.147.537-.44.684.195.243.538.195.685.488.489.146.588.781.93 1.122-.05.147 0 .342.147.342l.244-.586c.294-.341.245-.83.637-1.024.098-.05.147.146.195.195l-.538 1.317c0 .098-.097.294.049.342.098-.342.44-.635.343-1.024.195-.245.44-.538.392-.929-.49-.146-.833-.536-1.029-1.024-.098-.342-.049-.733-.244-1.026a1.226 1.226 0 01-.93-.243c-.245-.342-.49-.88-1.029-.928-.048-.05-.097-.195.05-.244.49-.097 1.077-.147 1.517-.488.783-.684.881-1.758.783-2.783-.048-.635.685-.244.833-.684.195-.097.343-.097.49.098.293.928 1.712.44 2.104 1.367.049.293-.392.146-.49.195.098.342.539.538.49.977-.098.146-.244.292-.44.244-.539-.391-.686-1.025-.98-1.563h-.147c-.195.635.49.977.735 1.514l-.098.196c-.196.097-.392-.05-.538-.147-.294-.586-.98-1.074-.735-1.806-.048-.147-.147-.245-.294-.245-.245 0-.342.196-.294.44.49.732.637 1.66 1.47 2.099.245.195.146.586.048.78-.097.537.197.978.538 1.27.1 0 .246.049.197-.146-.294-.488-.44-.976-.392-1.563 0-.243.294-.488.44-.39-.097.586.05 1.123.196 1.66 0 .098.148.195.245.098-.097-.44-.294-.928-.097-1.368.146-.097.292-.292.489-.243-.197.39-.197.927-.197 1.415.05.293.295.538.589.586.538-.586-.343-1.22 0-2.001.146-.147.048-.44.342-.538.147 0 .196.147.196.293-.293.44-.293 1.22 0 1.66.294.196.343.879.734.586.196-1.122-.196-2.294-.734-3.221zm-3.133 1.562v-.195l-.93-.927c.048.585.539.927.93 1.122zm-.637.391l-.538-.489c0-.097-.147-.341-.245-.194-.147.342.294.536.49.78.147.098.245 0 .293-.097zm-.587.487c-.391-.146-.441-.585-.783-.731-.049.146.049.342.195.44.197.194.392.585.637.585.098-.098.049-.244-.049-.294zm-.636.342c-.294-.243-.49-.78-.881-.634.048.44.538.488.734.733.098.048.195-.05.147-.099zm2.741 1.026a3.519 3.519 0 01-.88-1.562c-.148.194-.1.586.048.83.049.439.49.537.832.732zm-1.028.049l-.244-.391c-.05.196.097.44.244.39zm1.322 3.222c.49-1.123.538-2.393.783-3.613l-.293.342c-.735.927-.637 2.245-1.029 3.368-.146.879-.783 1.66-1.37 2.392-.05.146-.245.488.049.537.734-.927 1.175-2.002 1.86-3.026zm-1.566-2.539c-.343-.293-.49-.732-.735-1.025l-.049.195c0 .391.196.635.49.83.097.049.245.098.294 0zm4.258-.293c-.097-.342-.44-.488-.685-.585 0 1.122-.245 2.099-.636 3.075-.392 1.415-1.322 2.782-2.154 4.052l-.05.244c.49-.147.686-.586 1.126-.83 1.127-1.807 2.253-3.76 2.4-5.956zm-1.272.781c.097-.293.195-.83-.098-.976-.44.634-.588 1.464-.637 2.294l-.392 1.025c-.489.489-.587 1.172-1.027 1.71-.148.243-.392.291-.44.536-.1.293-.392.585-.344.83.147-.049.05.097.147.146.294-.049.294-.39.538-.44.882-1.66 2.007-3.22 2.253-5.125zm-1.959-.488c-.44.195-.49.83-.686 1.27-.048.634.148 1.463-.341 1.903v-1.806l-.1-.049c-.292.39-.243.927-.635 1.318-.392.585-.196 1.465.147 2.05.342-.194.588-.635.685-.976.44-.439.49-.977.636-1.513.294-.634.343-1.415.294-2.197zm-2.545 4.296c-.098-.245-.343-.879-.686-.39-.636.244-1.37.292-2.007.537 0 .39.196.682.49.927 0 .146.049.195.195.195.343 0 .246-.44.343-.634.343-.39.343.439.784.292.097-.292-.098-.731.294-.879.195.099.244.391.39.488.197-.097.148-.34.197-.536zm.685 1.61c-.147-.194-.147-.487-.391-.487-.294.488-.881-.049-1.127.439-.294.342-1.077.342-.98.83h.98c.197.097.441.146.539-.098.196-.293.391.098.636 0 .05-.244.245-.439.343-.683zm-.636 1.563c-.441.146-.685-.293-1.077-.342-.099.098-.099.245-.099.342-.048.244-1.106.61-1.009.806.539-.147 2.038-.318 2.38-.709l-.195-.097zm-5.56-15.362s.812-.133.958.228c.65 1.624-1.47 1.758-1.42 3.027.391.05.93.196 1.175-.243l.686.243c.342-.049.391-.683.832-.44.195-.145.44-.194.637-.096.244-.098.195-.44.097-.636-.343.196-.832.245-1.273.342-.098-.048-.342-.243-.196-.39.54.196.54-.634 1.126-.341.294-.147.392-.538.343-.88-.087-.828-.24-1.526-1.204-1.733-.082-.018-.156-.022-.29.048 0 .02-.032.09.068.117.13.035.155.184.045.264-.192.14-.517.041-.608-.063-.046-.054-.113-.089-.247-.086-.235.03-.64.113-.728.639zm-2.79 15.628c-.038-.15.097-.375.61-.953.617-.693.688-1.922.804-2.619.143-.855.68-1.448.68-1.448s-.912.29-1.345 1.585c-.325.972-.613 2.877-1.46 2.953a.45.45 0 00-.156.037c-.493-.121-.873-.288-1.217-.652 0 0-.274-.285-.366-.343-1.72-1.96-2.859-4.626-2.957-7.372.441-2.784 1.574-5.845 4.492-6.78.6-.11 1.152-.343 1.751-.045.718.513.616 1.607.66 2.372.02.036.189.15.189.15.577-.48 1.193-1.003 1.621-1.711-.01-.158-.213-.332-.396-.378-.146 0-.3.074-.45.086-.176.014-.328-.05-.328-.327-.051-.464.413-1.067.595-1.11.846-.106 1.4-.86 2.315-.353.497.199.949.548 1.15 1.052.347.984.19 2.022.297 3.036.04.16.155.203.344.203.68-.206.709-.786.672-1.461-.034-.6-.152-1.403.373-1.847.534-.436 1.094-.863 2.062-.494 1.442.55 2.512 1.917 3.394 3.041.689.98 1.182 2.016 1.429 3.195.196 2.207-.295 4.17-1.13 5.983-.639 1.47-1.479 2.7-2.761 3.634-.3.15-.657.207-.983.1 0 0-.39-.382-.564-.423.001.113.412.519.439.602.117.174.203.365.148.583l-.112.112c-.151.129-.258.079-.355.072a2.197 2.197 0 00-.403.014c-1.192.122-1.4.164-2.154.314a8.693 8.693 0 00-1.56.291c-.268.003-.304-.295-.209-.454.032-.312.248-.444.446-.557l.148-.087c.143-.09.254-.194.286-.37.048-.901-.425-1.516-.726-2.309 0 0-.506-1.557-1.278-1.187-.093.247.089.897.089.897-.038.809.136 1.488.447 2.253 0 .092.058.61-.053.722-.342.173-.54.196-.851.252-.11.015-.242.023-.968.1-1.423.319-2.68.059-2.659-.36zm5.95-9.688c-.244.488-.88 0-1.223.391-.245.049-.392-.049-.49-.196v-.194c.294 0 .588-.05.784-.245.195-.049.44.245.685 0 .147-.097.098-.342.293-.44.294.148.05.49-.048.684zm1.665 2.245c-.049.391.637.294.44.684-.292.146-.489-.146-.635-.342-.147-.292-.245-.78-.147-1.024.538-.049.147.439.342.682zm1.126.05c0 .098.147.292-.049.341-.245.099-.538-.049-.734-.243-.293-.391-.44-.977-.196-1.514.098-.146.245 0 .294.097.196.342-.098.831.245 1.123l.44.196zm-2.154-1.319c-.098.148-.196.391-.44.342-.832-.243-.735.977-1.567.83-.294-.097-.783.147-.88-.34.097-.245.537-.1.734-.245.146.048.341.097.489.097.244-.195-.098-.44.147-.585.294.146.538-.147.734-.293.294.097.587.048.735-.245.146 0 .097.293.048.44M1.959 82.752c-.011.374-.011 1.259 1.148 1.248.647 0 1.218-.266 1.218-1.09 0-1.243-1.762-1.118-1.762-1.98 0-.424.304-.576.604-.576.473 0 .609.283.603.711h.523c.032-.797-.37-1.144-1.088-1.144-.659 0-1.154.368-1.154 1.063 0 1.177 1.763 1.08 1.763 1.947 0 .467-.305.635-.702.635-.32 0-.658-.168-.658-.7v-.114h-.495zM7.107 83.918v-.434H5.551V82.13h1.415v-.435H5.55v-1.258h1.524v-.434H5.05v3.916h2.056zM9.974 81.081c.049-.759-.25-1.16-1.028-1.16-.773 0-1.262.314-1.262 1.42v1.108c0 1.518.75 1.551 1.24 1.551.256 0 1.132 0 1.11-1.237h-.517c-.005.765-.468.82-.62.82-.386 0-.702-.115-.702-1.075v-1.047c0-.672.098-.77.114-.814.017-.054.18-.303.593-.303.104 0 .337.043.44.168.104.125.121.347.115.57h.517zM10.688 82.487c0 1.084.402 1.513 1.234 1.513s1.236-.429 1.236-1.513v-2.485h-.501v2.506c0 .857-.261 1.074-.735 1.074-.473 0-.734-.217-.734-1.074v-2.506h-.5v2.485z"/><path fill-rule="evenodd" clip-rule="evenodd" d="M14.473 80.436h.756c.387 0 .527.315.527.597 0 .341-.174.65-.532.65h-.751v-1.247zm.587 1.681c.169 0 .556.022.593.5.044.52.011 1.03.152 1.301h.523c-.076-.244-.131-.857-.136-1.025-.027-.786-.19-.938-.642-1.009v-.01c.462-.082.718-.434.718-.896 0-.488-.245-.976-.942-.976h-1.353v3.916h.5v-1.8h.587"/><path d="M17.027 83.918h.5v-3.916h-.5v3.916zM18.063 80.002v.434h1.033v3.482h.501v-3.482h1.033v-.434h-2.567zM21.168 83.918h.5v-3.916h-.5v3.916zM24.626 83.918v-.434H23.07V82.13h1.415v-.435H23.07v-1.258h1.523v-.434H22.57v3.916h2.056zM25.13 82.752c-.01.374-.01 1.259 1.148 1.248.648 0 1.22-.266 1.22-1.09 0-1.243-1.764-1.118-1.764-1.98 0-.424.305-.576.604-.576.474 0 .61.283.605.711h.521c.033-.797-.369-1.144-1.088-1.144-.657 0-1.152.368-1.152 1.063 0 1.177 1.762 1.08 1.762 1.947 0 .467-.305.635-.702.635-.321 0-.658-.168-.658-.7v-.114h-.495zM29.453 83.918h.5v-3.916h-.5v3.916zM33.13 80.002v3.352h-.011l-1.529-3.352h-.707v3.916h.446v-3.395h.01l1.551 3.395h.686v-3.916h-.447zM36.954 80.002h-.512l-.92 3.445h-.01l-.898-3.445h-.544l1.137 3.916h.599l1.148-3.916zM39.474 83.918v-.434h-1.556V82.13h1.414v-.435h-1.414v-1.258h1.524v-.434h-2.024v3.916h2.056zM39.978 82.752c-.01.374-.01 1.259 1.148 1.248.648 0 1.22-.266 1.22-1.09 0-1.243-1.764-1.118-1.764-1.98 0-.424.305-.576.605-.576.472 0 .608.283.603.711h.522c.033-.797-.37-1.144-1.088-1.144-.658 0-1.153.368-1.153 1.063 0 1.177 1.762 1.08 1.762 1.947 0 .467-.304.635-.701.635-.321 0-.658-.168-.658-.7v-.114h-.496zM42.707 80.002v.434h1.033v3.482h.502v-3.482h1.033v-.434h-2.568z"/><path fill-rule="evenodd" clip-rule="evenodd" d="M46.965 84c.832 0 1.235-.429 1.235-1.513V81.2c0-.781-.403-1.28-1.235-1.28-.832 0-1.235.499-1.235 1.28v1.286c0 1.084.403 1.513 1.235 1.513zm0-.418c-.474 0-.724-.217-.724-1.074v-1.323c0-.82.567-.847.724-.847.157 0 .724.027.724.847v1.323c0 .857-.251 1.074-.724 1.074zM49.516 80.436h.756c.386 0 .528.315.528.597 0 .341-.175.65-.533.65h-.751v-1.247zm.588 1.681c.168 0 .554.022.593.5.043.52.01 1.03.152 1.301h.522c-.077-.244-.13-.857-.136-1.025-.027-.786-.19-.938-.642-1.009v-.01c.462-.082.718-.434.718-.896 0-.488-.245-.976-.94-.976h-1.355v3.916h.5v-1.8h.588M53.732 80.436h.69c.109 0 .555.06.555.656 0 .613-.49.668-.695.668h-.55v-1.324zm0 3.482v-1.724h.658c.402 0 1.099-.185 1.099-1.075 0-.922-.567-1.117-1.094-1.117H53.23v3.916h.502M56.633 80.436h.756c.387 0 .527.315.527.597 0 .341-.173.65-.532.65h-.751v-1.247zm.588 1.681c.168 0 .555.022.593.5.043.52.01 1.03.152 1.301h.522c-.076-.244-.13-.857-.136-1.025-.027-.786-.19-.938-.642-1.009v-.01c.462-.082.718-.434.718-.896 0-.488-.245-.976-.941-.976h-1.354v3.916h.5v-1.8h.588M60.344 84c.832 0 1.235-.429 1.235-1.513V81.2c0-.781-.403-1.28-1.235-1.28-.832 0-1.235.499-1.235 1.28v1.286c0 1.084.403 1.513 1.235 1.513zm0-.418c-.473 0-.724-.217-.724-1.074v-1.323c0-.82.567-.847.724-.847.157 0 .724.027.724.847v1.323c0 .857-.251 1.074-.724 1.074z"/><path d="M62.035 80.002v.434h1.034v3.482h.5v-3.482h1.034v-.434h-2.568zM67.134 83.918v-.434h-1.556V82.13h1.415v-.435h-1.415v-1.258h1.523v-.434h-2.023v3.916h2.056zM70.001 81.081c.05-.759-.25-1.16-1.028-1.16-.773 0-1.262.314-1.262 1.42v1.108c0 1.518.751 1.551 1.24 1.551.256 0 1.132 0 1.11-1.237h-.517c-.004.765-.468.82-.62.82-.386 0-.701-.115-.701-1.075v-1.047c0-.672.097-.77.114-.814.016-.054.179-.303.593-.303.103 0 .337.043.44.168.104.125.12.347.115.57H70zM70.367 80.002v.434h1.034v3.482h.5v-3.482h1.034v-.434h-2.568zM73.473 83.918h.5v-3.916h-.5v3.916z"/><path fill-rule="evenodd" clip-rule="evenodd" d="M76.094 84c.832 0 1.235-.429 1.235-1.513V81.2c0-.781-.403-1.28-1.235-1.28-.832 0-1.235.499-1.235 1.28v1.286c0 1.084.403 1.513 1.235 1.513zm0-.418c-.473 0-.724-.217-.724-1.074v-1.323c0-.82.567-.847.724-.847.157 0 .724.027.724.847v1.323c0 .857-.25 1.074-.724 1.074z"/><path d="M80.426 80.002v3.352h-.01l-1.53-3.352h-.706v3.916h.446v-3.395h.01l1.55 3.395h.687v-3.916h-.447zM85.146 81.081c.049-.759-.25-1.16-1.028-1.16-.773 0-1.262.314-1.262 1.42v1.108c0 1.518.75 1.551 1.24 1.551.256 0 1.131 0 1.11-1.237h-.517c-.005.765-.468.82-.62.82-.386 0-.702-.115-.702-1.075v-1.047c0-.672.098-.77.115-.814.015-.054.178-.303.593-.303.103 0 .337.043.44.168.103.125.12.347.114.57h.517z"/><path fill-rule="evenodd" clip-rule="evenodd" d="M87.098 84c.832 0 1.235-.429 1.235-1.513V81.2c0-.781-.403-1.28-1.235-1.28-.832 0-1.235.499-1.235 1.28v1.286c0 1.084.403 1.513 1.235 1.513zm0-.418c-.474 0-.724-.217-.724-1.074v-1.323c0-.82.567-.847.724-.847.157 0 .724.027.724.847v1.323c0 .857-.251 1.074-.724 1.074zM89.646 80.436h.756c.386 0 .527.315.527.597 0 .341-.174.65-.532.65h-.751v-1.247zm.587 1.681c.169 0 .555.022.593.5.044.52.011 1.03.153 1.301h.522c-.077-.244-.13-.857-.136-1.025-.028-.786-.19-.938-.642-1.009v-.01c.462-.082.718-.434.718-.896 0-.488-.245-.976-.942-.976h-1.355v3.916h.502v-1.8h.587M92.7 80.436h.69c.11 0 .555.06.555.656 0 .613-.49.668-.696.668h-.55v-1.324zm0 3.482v-1.724h.658c.402 0 1.099-.185 1.099-1.075 0-.922-.566-1.117-1.094-1.117h-1.164v3.916h.5M96.332 84c.833 0 1.235-.429 1.235-1.513V81.2c0-.781-.402-1.28-1.235-1.28-.832 0-1.234.499-1.234 1.28v1.286c0 1.084.402 1.513 1.234 1.513zm0-.418c-.473 0-.723-.217-.723-1.074v-1.323c0-.82.565-.847.723-.847.158 0 .724.027.724.847v1.323c0 .857-.25 1.074-.724 1.074zM98.879 80.436h.756c.387 0 .527.315.527.597 0 .341-.173.65-.532.65h-.751v-1.247zm.588 1.681c.168 0 .555.022.593.5.043.52.011 1.03.152 1.301h.522c-.076-.244-.13-.857-.136-1.025-.027-.786-.19-.938-.642-1.009v-.01c.462-.082.718-.434.718-.896 0-.488-.245-.976-.941-.976h-1.354v3.916h.5v-1.8h.588M101.012 83.918h.506l.294-.933h1.518l.282.933h.561l-1.279-3.916h-.637l-1.245 3.916zm2.181-1.367h-1.256l.614-2.088h.011l.631 2.089z"/><path d="M103.883 80.002v.434h1.033v3.482h.501v-3.482h1.034v-.434h-2.568zM106.988 83.918h.501v-3.916h-.501v3.916z"/><path fill-rule="evenodd" clip-rule="evenodd" d="M109.606 84c.832 0 1.234-.429 1.234-1.513V81.2c0-.781-.402-1.28-1.234-1.28s-1.235.499-1.235 1.28v1.286c0 1.084.403 1.513 1.235 1.513zm0-.418c-.473 0-.724-.217-.724-1.074v-1.323c0-.82.566-.847.724-.847.157 0 .724.027.724.847v1.323c0 .857-.252 1.074-.724 1.074z"/><path d="M113.942 80.002v3.352h-.011l-1.529-3.352h-.707v3.916h.446v-3.395h.01l1.552 3.395h.685v-3.916h-.446zM26.863 31.182v14.764c-.253.251-.253.062-.306-.274-.356-2.25-.557-6.054-3.993-9.136-7.658-6.867-17.017-3.877-15.131 4.549 2.398 10.712 19.274 4.834 21.485 18.773C31.254 74.602 17.743 79.239 7 73.678c0 0-2.773-1.732-3.869-1.295-.475.19-.787 1.158-.86 2.216-.037 1.531-.462 1.072-.439.94-.004-.636 0-15.766 0-15.766.012-.288.247-.207.247-.112.273 17.48 19.297 19.712 18.927 9.555C20.567 57.207 1.912 60.32.198 48.003c-2.109-15.14 13.14-19.393 22.02-12.848 1.756 1.294 3.39-.694 3.67-1.104.599-.87.404-1.733.64-2.876.093-.453.335-.308.335.007zM114.133 46.064c.094 1.094-.497.813-.497.813 1.439-11.316-21.328-24.602-22.796 4.388-1.298 25.63 16.534 30.683 23.519 13.178.069-.243.512-1.554.531-1.666.082-.463.151.07.082.587-3.95 22.42-41.815 14.963-33.132-17.768 2.062-7.772 12.171-15.255 20.274-13.018 4.828 1.332 4.226 2.037 7.145 3.575 3.276 1.726 4.12-2.28 4.525-4.315.368-.204.346.493.346.493l.003 13.733zM69.725 37.447c-1.737-2.662-4.55-4.24-7.814-3.994-.447-.017-.422.243-.422.243v20.812c.002.447.422.444.422.444 3.66.296 6.811-1.933 8.555-5.079 2.078-3.748 1.398-9.147-.741-12.426zm10.45 3.597c.906 5.237-.182 9.428-2.836 11.787-4.62 3.719-9.697 2.594-15.213 2.811-.697-.042-.637.802-.637.802V75.55l-11.225.004-.006-41.855c.068-.818-1.524-.591-2.528-.64-.489-.064-.247-.424-.02-.462 4.355.095 17.454-.396 24.78 1.102 3.793.775 6.957 3.128 7.685 7.345M44.71 48.434V75.55c-1.592.016-11.494.004-11.494.004l.008-26.022s.051-.966-.587-.991c-1.326-.053-3.114-.197-3.114-.197-.227-.013-.462-.312 0-.345h14.575c.65-.02.611.435.611.435z"/></g><defs><clipPath id="clip0"><path fill="#fff" transform="translate(0 21)" d="M0 0h115v63H0z"/></clipPath></defs></svg>